<svg xmlns="http://www.w3.org/2000/svg" width="20" height="20" viewBox="0 0 20 20" fill="none">
  <path d="M17.6002 12.9633C16.9221 11.7969 16.5619 10.1227 16.5619 8.125C16.5619 6.38452 15.8705 4.71532 14.6398 3.48461C13.4091 2.2539 11.7399 1.5625 9.99941 1.5625C8.25893 1.5625 6.58973 2.2539 5.35902 3.48461C4.12832 4.71532 3.43691 6.38452 3.43691 8.125C3.43691 10.1234 3.07832 11.7969 2.40019 12.9633C2.26182 13.2012 2.18847 13.4713 2.18751 13.7465C2.18655 14.0218 2.25801 14.2924 2.39472 14.5312C2.53057 14.7702 2.72774 14.9687 2.96589 15.106C3.20403 15.2433 3.47451 15.3146 3.74941 15.3125H6.57597C6.65349 16.1669 7.0477 16.9614 7.68115 17.54C8.3146 18.1186 9.1415 18.4394 9.99941 18.4394C10.8573 18.4394 11.6842 18.1186 12.3177 17.54C12.9511 16.9614 13.3453 16.1669 13.4228 15.3125H16.2494C16.5239 15.3142 16.7939 15.2427 17.0316 15.1054C17.2693 14.9681 17.4661 14.7699 17.6018 14.5312C17.7391 14.2927 17.8112 14.0223 17.8109 13.7471C17.8106 13.4718 17.738 13.2015 17.6002 12.9633ZM9.99941 16.5625C9.63921 16.5626 9.29004 16.4382 9.011 16.2104C8.73197 15.9826 8.5402 15.6654 8.46816 15.3125H11.5307C11.4586 15.6654 11.2669 15.9826 10.9878 16.2104C10.7088 16.4382 10.3596 16.5626 9.99941 16.5625ZM4.26972 13.4375C4.96113 12.0312 5.31191 10.2453 5.31191 8.125C5.31191 6.8818 5.80577 5.68951 6.68485 4.81044C7.56392 3.93136 8.75621 3.4375 9.99941 3.4375C11.2426 3.4375 12.4349 3.93136 13.314 4.81044C14.193 5.68951 14.6869 6.8818 14.6869 8.125C14.6869 10.2445 15.0369 12.0312 15.7283 13.4375H4.26972Z" fill="#667085"/>
</svg>