<svg width="12" height="12" viewBox="0 0 12 12" fill="none" xmlns="http://www.w3.org/2000/svg">
<path d="M4.10165 9.35181C3.99597 9.45748 3.93661 9.6008 3.93661 9.75024C3.93661 9.89969 3.99597 10.043 4.10165 10.1487C4.20732 10.2544 4.35064 10.3137 4.50008 10.3137C4.64953 10.3137 4.79285 10.2544 4.89852 10.1487L8.64852 6.39868C8.70096 6.34642 8.74257 6.28433 8.77096 6.21595C8.79935 6.14758 8.81396 6.07428 8.81396 6.00024C8.81396 5.92621 8.79935 5.85291 8.77096 5.78453C8.74257 5.71616 8.70096 5.65406 8.64852 5.60181L4.89852 1.85181C4.79285 1.74613 4.64953 1.68677 4.50008 1.68677C4.35064 1.68677 4.20732 1.74613 4.10165 1.85181C3.99597 1.95748 3.93661 2.1008 3.93661 2.25024C3.93661 2.39969 3.99597 2.54301 4.10165 2.64868L7.45274 5.99977L4.10165 9.35181Z" fill="#475467"/>
</svg>
