<svg width="12" height="12" viewBox="0 0 12 12" fill="none" xmlns="http://www.w3.org/2000/svg">
<path d="M7.89835 9.35181C8.00403 9.45748 8.06339 9.6008 8.06339 9.75024C8.06339 9.89969 8.00403 10.043 7.89835 10.1487C7.79268 10.2544 7.64936 10.3137 7.49992 10.3137C7.35047 10.3137 7.20715 10.2544 7.10148 10.1487L3.35148 6.39868C3.29904 6.34642 3.25743 6.28433 3.22904 6.21595C3.20065 6.14758 3.18604 6.07428 3.18604 6.00024C3.18604 5.92621 3.20065 5.85291 3.22904 5.78453C3.25743 5.71616 3.29904 5.65406 3.35148 5.60181L7.10148 1.85181C7.20715 1.74613 7.35047 1.68677 7.49992 1.68677C7.64936 1.68677 7.79268 1.74613 7.89835 1.85181C8.00403 1.95748 8.06339 2.1008 8.06339 2.25024C8.06339 2.39969 8.00403 2.54301 7.89835 2.64868L4.54726 5.99977L7.89835 9.35181Z" fill="#475467"/>
</svg>
