<svg xmlns="http://www.w3.org/2000/svg" width="20" height="20" viewBox="0 0 20 20" fill="none">
  <path d="M9.37382 9.99998C9.37382 10.2472 9.30051 10.4889 9.16316 10.6944C9.02581 10.9 8.83058 11.0602 8.60217 11.1548C8.37377 11.2494 8.12243 11.2742 7.87996 11.226C7.63748 11.1777 7.41475 11.0587 7.23994 10.8839C7.06512 10.7091 6.94607 10.4863 6.89784 10.2438C6.84961 10.0014 6.87436 9.75004 6.96897 9.52163C7.06358 9.29322 7.2238 9.098 7.42936 8.96065C7.63492 8.82329 7.87659 8.74998 8.12382 8.74998C8.45534 8.74998 8.77328 8.88168 9.0077 9.1161C9.24212 9.35052 9.37382 9.66846 9.37382 9.99998ZM11.8738 8.74998C11.6266 8.74998 11.3849 8.82329 11.1794 8.96065C10.9738 9.098 10.8136 9.29322 10.719 9.52163C10.6244 9.75004 10.5996 10.0014 10.6478 10.2438C10.6961 10.4863 10.8151 10.7091 10.9899 10.8839C11.1648 11.0587 11.3875 11.1777 11.63 11.226C11.8724 11.2742 12.1238 11.2494 12.3522 11.1548C12.5806 11.0602 12.7758 10.9 12.9132 10.6944C13.0505 10.4889 13.1238 10.2472 13.1238 9.99998C13.1238 9.66846 12.9921 9.35052 12.7577 9.1161C12.5233 8.88168 12.2053 8.74998 11.8738 8.74998ZM18.4363 9.99998C18.4366 11.4453 18.0657 12.8664 17.359 14.1272C16.6524 15.3879 15.6337 16.446 14.4007 17.2C13.1677 17.954 11.7617 18.3787 10.3174 18.4333C8.87319 18.4878 7.43912 18.1705 6.15273 17.5117L3.61913 18.3594C3.34332 18.4523 3.04703 18.4664 2.76365 18.4C2.48027 18.3336 2.22107 18.1893 2.01526 17.9835C1.80946 17.7777 1.66522 17.5185 1.59882 17.2352C1.53242 16.9518 1.54649 16.6555 1.63945 16.3797L2.48398 13.8461C1.90405 12.7101 1.58919 11.4575 1.56309 10.1823C1.53699 8.90712 1.80032 7.64263 2.33328 6.48388C2.86624 5.32514 3.65495 4.3023 4.64013 3.49227C5.62531 2.68223 6.78131 2.10609 8.02122 1.80715C9.26113 1.50821 10.5527 1.49425 11.7987 1.76633C13.0448 2.03841 14.213 2.58945 15.2155 3.37801C16.2179 4.16656 17.0285 5.17212 17.5864 6.31908C18.1443 7.46604 18.4349 8.72455 18.4363 9.99998ZM16.5613 9.99998C16.5609 8.99338 16.329 8.00035 15.8834 7.09772C15.4379 6.19509 14.7907 5.40706 13.9918 4.79458C13.193 4.1821 12.264 3.7616 11.2766 3.5656C10.2893 3.36959 9.2701 3.40335 8.29789 3.66425C7.32569 3.92515 6.42653 4.40621 5.66997 5.0702C4.91342 5.73419 4.31975 6.56332 3.9349 7.49345C3.55004 8.42358 3.38432 9.42978 3.45054 10.4342C3.51676 11.4386 3.81315 12.4144 4.31679 13.2859C4.38335 13.4008 4.42474 13.5286 4.43821 13.6607C4.45168 13.7929 4.43692 13.9263 4.39491 14.0523L3.61913 16.3797L5.94648 15.6039C6.04221 15.572 6.14244 15.5556 6.24335 15.5555C6.408 15.5557 6.56968 15.5994 6.7121 15.682C7.70978 16.2593 8.8419 16.5636 9.99456 16.5644C11.1472 16.5651 12.2797 16.2623 13.2782 15.6863C14.2766 15.1103 15.1057 14.2815 15.682 13.2833C16.2584 12.2851 16.5617 11.1526 16.5613 9.99998Z" fill="#667085"/>
</svg>