<svg width="20" height="21" viewBox="0 0 20 21" fill="none" xmlns="http://www.w3.org/2000/svg">
<path d="M19.6867 10.4999C19.6913 12.0562 19.1861 13.5711 18.2484 14.8132C18.0972 15.0068 17.8761 15.1334 17.6325 15.1656C17.3889 15.1979 17.1425 15.1332 16.9461 14.9856C16.7497 14.838 16.6191 14.6191 16.5825 14.3762C16.5458 14.1333 16.6059 13.8857 16.75 13.6866C17.2548 13.0131 17.5924 12.2293 17.735 11.3998C17.8775 10.5702 17.8209 9.71867 17.5698 8.91529C17.3187 8.11191 16.8803 7.37969 16.2907 6.77897C15.7011 6.17825 14.9772 5.72622 14.1787 5.46013C13.3801 5.19403 12.5298 5.12149 11.6977 5.24848C10.8656 5.37547 10.0756 5.69835 9.39282 6.19052C8.71 6.6827 8.1539 7.33007 7.77034 8.07931C7.38678 8.82855 7.18674 9.6582 7.1867 10.4999C7.1867 10.7486 7.08793 10.987 6.91211 11.1628C6.7363 11.3386 6.49784 11.4374 6.2492 11.4374C6.00056 11.4374 5.7621 11.3386 5.58629 11.1628C5.41047 10.987 5.3117 10.7486 5.3117 10.4999C5.31125 9.97438 5.36863 9.45039 5.4828 8.93741C4.57111 8.95616 3.70422 9.33631 3.07282 9.99423C2.44143 10.6521 2.09725 11.5339 2.116 12.4456C2.13475 13.3573 2.5149 14.2242 3.17281 14.8556C3.83073 15.487 4.71252 15.8312 5.6242 15.8124H7.4992C7.74784 15.8124 7.9863 15.9112 8.16211 16.087C8.33793 16.2628 8.4367 16.5013 8.4367 16.7499C8.4367 16.9986 8.33793 17.237 8.16211 17.4128C7.9863 17.5886 7.74784 17.6874 7.4992 17.6874H5.6242C4.90295 17.6883 4.18907 17.5423 3.52607 17.2583C2.86307 16.9744 2.26483 16.5584 1.76783 16.0357C1.27082 15.513 0.885446 14.8946 0.635197 14.2182C0.384948 13.5417 0.275062 12.8214 0.312237 12.1011C0.349413 11.3808 0.53287 10.6756 0.851428 10.0285C1.16999 9.38143 1.61697 8.80599 2.16515 8.33725C2.71332 7.86852 3.35121 7.51632 4.03992 7.30211C4.72863 7.08791 5.45375 7.01618 6.17108 7.09132C6.92996 5.68221 8.13745 4.56671 9.60215 3.92161C11.0668 3.27651 12.705 3.13873 14.2568 3.53011C15.8087 3.92149 17.1856 4.81963 18.1692 6.08218C19.1528 7.34473 19.6868 8.89945 19.6867 10.4999ZM12.5375 9.83663C12.4504 9.74923 12.3469 9.67988 12.2329 9.63256C12.119 9.58525 11.9968 9.56089 11.8734 9.56089C11.75 9.56089 11.6279 9.58525 11.5139 9.63256C11.3999 9.67988 11.2965 9.74923 11.2094 9.83663L8.70936 12.3366C8.62215 12.4238 8.55298 12.5274 8.50578 12.6413C8.45859 12.7552 8.43429 12.8774 8.43429 13.0007C8.43429 13.124 8.45859 13.2461 8.50578 13.3601C8.55298 13.474 8.62215 13.5775 8.70936 13.6648C8.79656 13.752 8.90009 13.8211 9.01403 13.8683C9.12797 13.9155 9.25009 13.9398 9.37342 13.9398C9.49675 13.9398 9.61887 13.9155 9.73281 13.8683C9.84675 13.8211 9.95028 13.752 10.0375 13.6648L10.9367 12.7655V16.7499C10.9367 16.9986 11.0355 17.237 11.2113 17.4128C11.3871 17.5886 11.6256 17.6874 11.8742 17.6874C12.1228 17.6874 12.3613 17.5886 12.5371 17.4128C12.7129 17.237 12.8117 16.9986 12.8117 16.7499V12.7655L13.7109 13.6655C13.887 13.8417 14.1259 13.9406 14.375 13.9406C14.6241 13.9406 14.8629 13.8417 15.039 13.6655C15.2152 13.4894 15.3141 13.2505 15.3141 13.0015C15.3141 12.7524 15.2152 12.5135 15.039 12.3374L12.5375 9.83663Z" fill="#475467"/>
</svg>
