<svg xmlns="http://www.w3.org/2000/svg" width="20" height="20" viewBox="0 0 20 20" fill="none">
  <path d="M17.9424 17.0577L14.0306 13.1467C15.1644 11.7856 15.7298 10.0397 15.6091 8.27232C15.4884 6.50493 14.691 4.8521 13.3828 3.65766C12.0745 2.46322 10.3561 1.81913 8.5851 1.85938C6.81406 1.89963 5.12671 2.62112 3.87407 3.87376C2.62143 5.12641 1.89994 6.81376 1.85969 8.5848C1.81944 10.3558 2.46353 12.0742 3.65797 13.3825C4.85241 14.6907 6.50524 15.4881 8.27263 15.6088C10.04 15.7295 11.7859 15.1641 13.1471 14.0303L17.058 17.9421C17.1161 18.0001 17.185 18.0462 17.2609 18.0776C17.3367 18.109 17.4181 18.1252 17.5002 18.1252C17.5823 18.1252 17.6636 18.109 17.7395 18.0776C17.8154 18.0462 17.8843 18.0001 17.9424 17.9421C18.0004 17.884 18.0465 17.8151 18.0779 17.7392C18.1094 17.6633 18.1255 17.582 18.1255 17.4999C18.1255 17.4178 18.1094 17.3364 18.0779 17.2606C18.0465 17.1847 18.0004 17.1158 17.9424 17.0577ZM3.12518 8.74987C3.12518 7.63735 3.45508 6.54982 4.07316 5.62479C4.69124 4.69976 5.56975 3.97879 6.59758 3.55305C7.62542 3.12731 8.75642 3.01591 9.84756 3.23296C10.9387 3.45 11.941 3.98573 12.7277 4.7724C13.5143 5.55907 14.0501 6.56135 14.2671 7.65249C14.4841 8.74363 14.3727 9.87463 13.947 10.9025C13.5213 11.9303 12.8003 12.8088 11.8753 13.4269C10.9502 14.045 9.8627 14.3749 8.75018 14.3749C7.25884 14.3732 5.82906 13.7801 4.77453 12.7255C3.72 11.671 3.12683 10.2412 3.12518 8.74987Z" fill="#98A2B3"/>
</svg>