<svg xmlns="http://www.w3.org/2000/svg" width="20" height="20" viewBox="0 0 20 20" fill="none">
  <path d="M0.938227 8.67199L9.68823 13.672C9.78268 13.726 9.88959 13.7544 9.99838 13.7544C10.1072 13.7544 10.2141 13.726 10.3085 13.672L19.0585 8.67199C19.1544 8.61737 19.234 8.53836 19.2894 8.443C19.3448 8.34764 19.374 8.23931 19.374 8.12902C19.374 8.01873 19.3448 7.9104 19.2894 7.81504C19.234 7.71967 19.1544 7.64067 19.0585 7.58605L10.3085 2.58605C10.2141 2.53206 10.1072 2.50366 9.99838 2.50366C9.88959 2.50366 9.78268 2.53206 9.68823 2.58605L0.938227 7.58605C0.842412 7.64067 0.762757 7.71967 0.707351 7.81504C0.651944 7.9104 0.622759 8.01873 0.622759 8.12902C0.622759 8.23931 0.651944 8.34764 0.707351 8.443C0.762757 8.53836 0.842412 8.61737 0.938227 8.67199ZM10.0007 3.84464L17.4906 8.12511L10.0007 12.4056L2.51088 8.12511L10.0007 3.84464ZM19.2929 10.9376C19.3348 11.009 19.3621 11.088 19.3732 11.17C19.3843 11.252 19.379 11.3354 19.3577 11.4153C19.3363 11.4952 19.2993 11.5702 19.2487 11.6357C19.1982 11.7012 19.1351 11.756 19.0632 11.797L10.3132 16.797C10.2188 16.851 10.1119 16.8794 10.0031 16.8794C9.89428 16.8794 9.78737 16.851 9.69291 16.797L0.938227 11.797C0.866667 11.7559 0.803891 11.7012 0.753483 11.6359C0.703074 11.5706 0.666021 11.496 0.644439 11.4164C0.622856 11.3368 0.617167 11.2537 0.627697 11.1719C0.638226 11.0901 0.664767 11.0111 0.705806 10.9396C0.746844 10.868 0.801575 10.8052 0.866874 10.7548C0.932173 10.7044 1.00676 10.6674 1.08638 10.6458C1.24718 10.6022 1.41871 10.6243 1.56323 10.7071L10.0007 15.5306L18.4382 10.7071C18.5094 10.666 18.5881 10.6394 18.6696 10.6287C18.7512 10.618 18.834 10.6236 18.9134 10.645C18.9928 10.6664 19.0672 10.7033 19.1323 10.7535C19.1974 10.8037 19.252 10.8663 19.2929 10.9376Z" fill="#667085"/>
</svg>