<svg xmlns="http://www.w3.org/2000/svg" width="116" height="28" viewBox="0 0 116 28" fill="none">
  <path d="M26.5884 20.6491V10.3452H28.9448V11.5344H29.2989C29.4267 11.1344 29.7029 10.7985 30.0706 10.5957C30.471 10.3924 30.9157 10.2921 31.3645 10.3039H32.6162V12.4309H31.3223C30.6267 12.4309 30.0636 12.6154 29.633 12.9843C29.2023 13.3532 28.987 13.9197 28.987 14.6837V20.6491H26.5884Z" fill="#25292B"/>
  <path d="M39.0817 20.9409C38.052 20.9409 37.1448 20.7219 36.36 20.2839C35.5825 19.8542 34.9451 19.2097 34.5238 18.4275C34.0858 17.6287 33.8668 16.6936 33.8668 15.6224V15.3719C33.8668 14.2873 34.0825 13.3482 34.5138 12.5547C34.9276 11.7781 35.5563 11.1371 36.3248 10.7084C37.1029 10.2704 37.9997 10.0514 39.0153 10.0514C40.0167 10.0514 40.8927 10.2704 41.6433 10.7084C42.3916 11.1439 42.9994 11.7846 43.395 12.5547C43.8116 13.3462 44.0202 14.2708 44.0208 15.3286V16.1838H36.2866C36.3148 16.9888 36.5998 17.635 37.1418 18.1227C37.6838 18.6103 38.3512 18.8538 39.144 18.8531C39.9228 18.8531 40.5 18.6828 40.8756 18.342C41.2376 18.0198 41.5285 17.6257 41.7298 17.185L43.7119 18.2112C43.4781 18.6427 43.1945 19.0452 42.8668 19.4105C42.4549 19.8675 41.9549 20.2364 41.3968 20.4952C40.7844 20.7923 40.0127 20.9409 39.0817 20.9409ZM36.3077 14.3708H41.5839C41.5289 13.6893 41.2684 13.147 40.8022 12.7438C40.336 12.3407 39.7347 12.1395 38.9982 12.1401C38.2335 12.1401 37.6218 12.3414 37.1629 12.7438C36.7041 13.1463 36.4191 13.6886 36.3077 14.3708Z" fill="#25292B"/>
  <path d="M52.1586 20.9409C51.1859 20.9409 50.4387 20.7705 49.9169 20.4298C49.395 20.089 49.016 19.71 48.7799 19.2928H48.4258V20.6491H46.0684V6.04893H48.467V11.6381H48.8212C48.9866 11.3455 49.2022 11.0843 49.4581 10.8664C49.7725 10.6064 50.1334 10.4083 50.5216 10.2828C51.0508 10.1164 51.604 10.0389 52.1586 10.0534C52.978 10.0451 53.7846 10.2563 54.4948 10.6651C55.2225 11.0951 55.815 11.7204 56.2053 12.4701C56.6359 13.2623 56.8512 14.2148 56.8512 15.3276V15.6606C56.8512 16.7734 56.6359 17.7259 56.2053 18.5181C55.8137 19.2704 55.2172 19.8965 54.4848 20.3241C53.7778 20.7324 52.9749 20.9453 52.1586 20.9409ZM51.4543 18.8551C52.3162 18.8551 53.0326 18.5734 53.6034 18.01C54.1742 17.4465 54.4589 16.6436 54.4576 15.6013V15.394C54.4576 14.3376 54.1762 13.531 53.6134 12.9742C53.0507 12.4175 52.3309 12.1395 51.4543 12.1401C50.5917 12.1401 49.8723 12.4182 49.2961 12.9742C48.7199 13.5303 48.4298 14.3369 48.4258 15.394V15.6023C48.4258 16.646 48.7142 17.4489 49.291 18.011C49.8679 18.5731 50.5873 18.8545 51.4492 18.8551H51.4543Z" fill="#25292B"/>
  <path d="M62.9213 20.8161C62.1841 20.8302 61.4565 20.6464 60.8144 20.2839C60.2054 19.9319 59.7124 19.4099 59.3958 18.7817C59.0604 18.1358 58.8927 17.3815 58.8927 16.5189V10.3452H61.2742V16.3317C61.2742 17.1662 61.4792 17.7846 61.889 18.1871C62.2988 18.5895 62.8794 18.7908 63.6306 18.7908C64.4791 18.7908 65.1499 18.5124 65.6429 17.9557C66.1359 17.3989 66.3828 16.5997 66.3834 15.558V10.3452H68.761V20.6491H66.4247V19.2093H66.0705C65.8894 19.5856 65.5591 19.9472 65.0795 20.2939C64.5999 20.6407 63.8805 20.8148 62.9213 20.8161Z" fill="#25292B"/>
  <path d="M76.2064 20.9409C75.2652 20.9551 74.3346 20.7404 73.4948 20.3151C72.697 19.9074 72.0333 19.2787 71.5832 18.504C71.1176 17.7112 70.8849 16.7587 70.8849 15.6466V15.3538C70.8849 14.2423 71.1176 13.2898 71.5832 12.4963C72.0333 11.7216 72.697 11.0929 73.4948 10.6853C74.3346 10.26 75.2652 10.0452 76.2064 10.0594C77.1937 10.0594 78.0386 10.2332 78.7409 10.5806C79.4177 10.9076 80.0019 11.3987 80.4402 12.0093C80.8711 12.6139 81.1565 13.3098 81.2743 14.0428L78.9602 14.5227C78.9101 14.1071 78.7755 13.7062 78.5648 13.3445C78.3519 12.9869 78.0449 12.6945 77.6774 12.4993C77.2416 12.2784 76.7571 12.1708 76.2688 12.1864C75.7354 12.1777 75.2085 12.3033 74.7364 12.5517C74.2787 12.8005 73.9075 13.1827 73.6719 13.6474C73.415 14.133 73.2866 14.7169 73.2866 15.3991V15.6073C73.2866 16.2888 73.415 16.8694 73.6719 17.349C73.9115 17.8105 74.2818 18.1912 74.7364 18.4436C75.2059 18.6966 75.7326 18.8245 76.2657 18.8149C77.1143 18.8149 77.7575 18.5959 78.1955 18.1579C78.6456 17.6943 78.9346 17.0981 79.0196 16.4575L81.3337 16.9998C81.1714 17.7139 80.8665 18.3877 80.4372 18.9809C79.9955 19.5884 79.4121 20.0788 78.7378 20.4097C78.0376 20.7645 77.1937 20.9416 76.2064 20.9409Z" fill="#25292B"/>
  <path d="M87.928 20.9409C86.9687 20.957 86.0199 20.7387 85.1641 20.305C84.3659 19.8953 83.7005 19.2672 83.2454 18.4939C82.7792 17.7092 82.5464 16.7671 82.5471 15.6677V15.3347C82.5471 14.2359 82.7799 13.2902 83.2454 12.4973C83.6966 11.721 84.363 11.092 85.1641 10.6863C86.0218 10.2587 86.9698 10.044 87.928 10.0604C88.8827 10.0431 89.8274 10.2578 90.6808 10.6863C91.4789 11.0936 92.1426 11.7224 92.5925 12.4973C93.058 13.2902 93.2927 14.2359 93.2968 15.3347V15.6677C93.2968 16.7664 93.062 17.7085 92.5925 18.4939C92.1387 19.2658 91.476 19.8936 90.6808 20.305C89.8292 20.7396 88.8839 20.9579 87.928 20.9409ZM87.928 18.8139C88.8047 18.8139 89.5207 18.5322 90.0761 17.9687C90.6315 17.4053 90.9095 16.6161 90.9102 15.6013V15.394C90.9102 14.3791 90.6322 13.59 90.0761 13.0266C89.52 12.4631 88.804 12.1814 87.928 12.1814C87.052 12.1814 86.3359 12.4631 85.7799 13.0266C85.2238 13.59 84.9458 14.3791 84.9458 15.394V15.6023C84.9458 16.6172 85.2238 17.4063 85.7799 17.9697C86.3359 18.5332 87.052 18.8149 87.928 18.8149V18.8139Z" fill="#25292B"/>
  <path d="M95.4158 20.6491V10.3452H97.7722V11.4922H98.1273C98.3421 11.1085 98.6545 10.7884 99.0329 10.5645C99.4568 10.2929 100.023 10.1587 100.732 10.1621C101.483 10.1621 102.087 10.315 102.543 10.6209C102.988 10.9111 103.348 11.3142 103.586 11.789H103.92C104.154 11.3181 104.506 10.9157 104.941 10.6209C105.386 10.315 106.019 10.1621 106.84 10.1621C107.446 10.1541 108.044 10.2972 108.581 10.5786C109.107 10.8613 109.541 11.2882 109.833 11.8091C110.145 12.3511 110.301 13.0255 110.302 13.8325V20.6531H107.909V13.9955C107.909 13.3978 107.749 12.9424 107.429 12.6291C107.109 12.3159 106.664 12.1596 106.095 12.1603C105.469 12.1603 104.972 12.3652 104.603 12.775C104.234 13.1849 104.05 13.7724 104.051 14.5378V20.6491H101.673V13.9955C101.673 13.3978 101.513 12.9424 101.193 12.6291C100.873 12.3159 100.428 12.1596 99.8579 12.1603C99.218 12.1603 98.7176 12.3652 98.3567 12.775C97.9959 13.1849 97.8151 13.7724 97.8144 14.5378V20.6491H95.4158Z" fill="#25292B"/>
  <path d="M20.2235 23.8456H6.66373C6.42312 23.8463 6.18636 23.7853 5.97601 23.6685C5.76567 23.5516 5.58876 23.3829 5.46215 23.1783C5.33553 22.9737 5.26344 22.74 5.25274 22.4997C5.24204 22.2593 5.29308 22.0202 5.40101 21.8052L9.00301 14.5891L7.35696 14.6142H7.33482C7.09472 14.6145 6.85854 14.5533 6.64872 14.4366C6.4389 14.3198 6.2624 14.1514 6.13599 13.9473C6.00958 13.7431 5.93744 13.5101 5.92644 13.2702C5.91544 13.0303 5.96593 12.7917 6.07312 12.5768L9.88741 4.93011C10.0043 4.69531 10.1845 4.49781 10.4076 4.35987C10.6307 4.22192 10.8878 4.14901 11.1501 4.14934L15.6878 4.15839C19.3774 4.15839 22.3807 6.98465 22.3807 10.4599C22.3807 13.1936 20.5696 15.4997 17.9909 16.373L21.4058 21.6693C21.544 21.882 21.6223 22.1281 21.6322 22.3816C21.6422 22.635 21.5836 22.8865 21.4625 23.1094C21.3414 23.3323 21.1624 23.5184 20.9443 23.648C20.7262 23.7776 20.4772 23.8458 20.2235 23.8456ZM8.94465 21.0284H17.6347L14.4624 16.1084C14.3155 15.8804 14.2372 15.6149 14.237 15.3437C14.237 14.9701 14.3854 14.6118 14.6495 14.3477C14.9137 14.0835 15.272 13.9351 15.6456 13.9351H15.8025C17.8752 13.8808 19.5595 12.3253 19.5595 10.4699C19.5595 8.55122 17.8209 6.99069 15.6848 6.99069L12.0184 6.98264L9.63386 11.7568L11.3031 11.7316C11.5473 11.731 11.7875 11.7939 12.0001 11.9142C12.2127 12.0344 12.3904 12.2079 12.5157 12.4175C12.641 12.6271 12.7097 12.8658 12.7149 13.11C12.7202 13.3541 12.6618 13.5955 12.5456 13.8103V13.8184L8.94465 21.0284Z" fill="#D10121"/>
</svg>