<svg width="21" height="14" viewBox="0 0 21 14" fill="none" xmlns="http://www.w3.org/2000/svg">
<path d="M13.1345 1.97617H7.54321V12.0238H13.1345V1.97617Z" fill="#FF5F00"/>
<path d="M7.89824 7C7.89735 6.03234 8.11663 5.07716 8.53947 4.20678C8.96231 3.33639 9.57763 2.57361 10.3388 1.97619C9.39618 1.23524 8.26408 0.774451 7.07193 0.646496C5.87977 0.518541 4.67567 0.728575 3.59724 1.2526C2.51881 1.77663 1.60958 2.5935 0.973455 3.60984C0.337335 4.62619 0 5.801 0 7C0 8.19901 0.337335 9.37382 0.973455 10.3902C1.60958 11.4065 2.51881 12.2234 3.59724 12.7474C4.67567 13.2714 5.87977 13.4815 7.07193 13.3535C8.26408 13.2256 9.39618 12.7648 10.3388 12.0238C9.57763 11.4264 8.96232 10.6636 8.53948 9.79322C8.11664 8.92284 7.89736 7.96766 7.89824 7Z" fill="#EB001B"/>
<path d="M20.6784 7C20.6784 8.19899 20.3411 9.37379 19.705 10.3901C19.0689 11.4065 18.1597 12.2234 17.0813 12.7474C16.0029 13.2714 14.7988 13.4815 13.6067 13.3535C12.4146 13.2256 11.2825 12.7648 10.3398 12.0238C11.1004 11.4258 11.7152 10.6629 12.138 9.79264C12.5608 8.92239 12.7804 7.96751 12.7804 7C12.7804 6.0325 12.5608 5.07762 12.138 4.20737C11.7152 3.33712 11.1004 2.57422 10.3398 1.97618C11.2825 1.23523 12.4146 0.774447 13.6067 0.646494C14.7988 0.518541 16.0029 0.728584 17.0813 1.25261C18.1597 1.77665 19.0689 2.59352 19.705 3.60986C20.3411 4.62621 20.6784 5.80102 20.6784 7Z" fill="#F79E1B"/>
<path d="M20.0678 10.9596V10.7539H20.1507V10.712H19.9395V10.7539H20.0224V10.9596H20.0678ZM20.4779 10.9596V10.7116H20.4131L20.3386 10.8822L20.2641 10.7116H20.1993V10.9596H20.2451V10.7725L20.3149 10.9338H20.3623L20.4322 10.7721V10.9596H20.4779Z" fill="#F79E1B"/>
</svg>
